<svg width="2042" height="981" viewBox="0 0 2042 981" fill="none" xmlns="http://www.w3.org/2000/svg">
<mask id="path-1-inside-1_84_5" fill="white">
<path d="M383.416 408.75H511V490.5H383.416V408.75Z"/>
<path d="M383.416 245.25H511V327H383.416V245.25Z"/>
<path d="M383.416 81.75H511V163.5H383.416V81.75Z"/>
<path d="M0.666504 408.75H128.25V490.5H0.666504V408.75Z"/>
<path d="M0.666504 245.25H128.25V327H0.666504V245.25Z"/>
<path d="M0.666504 81.75H128.25V163.5H0.666504V81.75Z"/>
<path d="M0.666504 327H128.25V408.75H0.666504V327Z"/>
<path d="M0.666504 163.5H128.25V245.25H0.666504V163.5Z"/>
<path d="M0.666504 0H128.25V81.75H0.666504V0Z"/>
<path d="M383.416 327H511V408.75H383.416V327Z"/>
<path d="M383.416 163.5H511V245.25H383.416V163.5Z"/>
<path d="M383.416 0H511V81.75H383.416V0Z"/>
<path d="M255.833 408.75H383.416V490.5H255.833V408.75Z"/>
<path d="M255.833 245.25H383.416V327H255.833V245.25Z"/>
<path d="M255.833 81.75H383.416V163.5H255.833V81.75Z"/>
<path d="M255.833 327H383.416V408.75H255.833V327Z"/>
<path d="M255.833 163.5H383.416V245.25H255.833V163.5Z"/>
<path d="M255.833 0H383.416V81.75H255.833V0Z"/>
<path d="M128.25 408.75H255.833V490.5H128.25V408.75Z"/>
<path d="M128.25 245.25H255.833V327H128.25V245.25Z"/>
<path d="M128.25 81.75H255.833V163.5H128.25V81.75Z"/>
<path d="M128.25 327H255.833V408.75H128.25V327Z"/>
<path d="M128.25 163.5H255.833V245.25H128.25V163.5Z"/>
<path d="M128.25 0H255.833V81.75H128.25V0Z"/>
<path d="M383.416 899.25H511V981H383.416V899.25Z"/>
<path d="M383.416 735.75H511V817.5H383.416V735.75Z"/>
<path d="M383.416 572.25H511V654H383.416V572.25Z"/>
<path d="M0.666504 899.25H128.25V981H0.666504V899.25Z"/>
<path d="M0.666504 735.75H128.25V817.5H0.666504V735.75Z"/>
<path d="M0.666504 572.25H128.25V654H0.666504V572.25Z"/>
<path d="M0.666504 817.5H128.25V899.25H0.666504V817.5Z"/>
<path d="M0.666504 654H128.25V735.75H0.666504V654Z"/>
<path d="M0.666504 490.5H128.25V572.25H0.666504V490.5Z"/>
<path d="M383.416 817.5H511V899.25H383.416V817.5Z"/>
<path d="M383.416 654H511V735.75H383.416V654Z"/>
<path d="M383.416 490.5H511V572.25H383.416V490.5Z"/>
<path d="M255.833 899.25H383.416V981H255.833V899.25Z"/>
<path d="M255.833 735.75H383.416V817.5H255.833V735.75Z"/>
<path d="M255.833 572.25H383.416V654H255.833V572.25Z"/>
<path d="M255.833 817.5H383.416V899.25H255.833V817.5Z"/>
<path d="M255.833 654H383.416V735.75H255.833V654Z"/>
<path d="M255.833 490.5H383.416V572.25H255.833V490.5Z"/>
<path d="M128.25 899.25H255.833V981H128.25V899.25Z"/>
<path d="M128.25 735.75H255.833V817.5H128.25V735.75Z"/>
<path d="M128.25 572.25H255.833V654H128.25V572.25Z"/>
<path d="M128.25 817.5H255.833V899.25H128.25V817.5Z"/>
<path d="M128.25 654H255.833V735.75H128.25V654Z"/>
<path d="M128.25 490.5H255.833V572.25H128.25V490.5Z"/>
<path d="M1148.92 899.25H1276.5V981H1148.92V899.25Z"/>
<path d="M1148.92 735.75H1276.5V817.5H1148.92V735.75Z"/>
<path d="M1148.92 572.25H1276.5V654H1148.92V572.25Z"/>
<path d="M766.166 899.25H893.75V981H766.166V899.25Z"/>
<path d="M766.166 735.75H893.75V817.5H766.166V735.75Z"/>
<path d="M766.166 572.25H893.75V654H766.166V572.25Z"/>
<path d="M766.166 817.5H893.75V899.25H766.166V817.5Z"/>
<path d="M766.166 654H893.75V735.75H766.166V654Z"/>
<path d="M766.166 490.5H893.75V572.25H766.166V490.5Z"/>
<path d="M1148.92 817.5H1276.5V899.25H1148.92V817.5Z"/>
<path d="M1148.92 654H1276.5V735.75H1148.92V654Z"/>
<path d="M1148.92 490.5H1276.5V572.25H1148.92V490.5Z"/>
<path d="M1021.33 899.25H1148.92V981H1021.33V899.25Z"/>
<path d="M1021.33 735.75H1148.92V817.5H1021.33V735.75Z"/>
<path d="M1021.33 572.25H1148.92V654H1021.33V572.25Z"/>
<path d="M638.583 899.25H766.166V981H638.583V899.25Z"/>
<path d="M638.583 735.75H766.166V817.5H638.583V735.75Z"/>
<path d="M638.583 572.25H766.166V654H638.583V572.25Z"/>
<path d="M638.583 817.5H766.166V899.25H638.583V817.5Z"/>
<path d="M638.583 654H766.166V735.75H638.583V654Z"/>
<path d="M638.583 490.5H766.166V572.25H638.583V490.5Z"/>
<path d="M1021.33 817.5H1148.92V899.25H1021.33V817.5Z"/>
<path d="M1021.33 654H1148.92V735.75H1021.33V654Z"/>
<path d="M1021.33 490.5H1148.92V572.25H1021.33V490.5Z"/>
<path d="M893.75 899.25H1021.33V981H893.75V899.25Z"/>
<path d="M893.75 735.75H1021.33V817.5H893.75V735.75Z"/>
<path d="M893.75 572.25H1021.33V654H893.75V572.25Z"/>
<path d="M511 899.25H638.583V981H511V899.25Z"/>
<path d="M511 735.75H638.583V817.5H511V735.75Z"/>
<path d="M511 572.25H638.583V654H511V572.25Z"/>
<path d="M511 817.5H638.583V899.25H511V817.5Z"/>
<path d="M511 654H638.583V735.75H511V654Z"/>
<path d="M511 490.5H638.583V572.25H511V490.5Z"/>
<path d="M893.75 817.5H1021.33V899.25H893.75V817.5Z"/>
<path d="M893.75 654H1021.33V735.75H893.75V654Z"/>
<path d="M893.75 490.5H1021.33V572.25H893.75V490.5Z"/>
<path d="M1148.92 408.75H1276.5V490.5H1148.92V408.75Z"/>
<path d="M1148.92 245.25H1276.5V327H1148.92V245.25Z"/>
<path d="M1148.92 81.75H1276.5V163.5H1148.92V81.75Z"/>
<path d="M766.166 408.75H893.75V490.5H766.166V408.75Z"/>
<path d="M766.166 245.25H893.75V327H766.166V245.25Z"/>
<path d="M766.166 81.75H893.75V163.5H766.166V81.75Z"/>
<path d="M766.166 327H893.75V408.75H766.166V327Z"/>
<path d="M766.166 163.5H893.75V245.25H766.166V163.5Z"/>
<path d="M766.166 0H893.75V81.75H766.166V0Z"/>
<path d="M1148.92 327H1276.5V408.75H1148.92V327Z"/>
<path d="M1148.92 163.5H1276.5V245.25H1148.92V163.5Z"/>
<path d="M1148.92 0H1276.5V81.75H1148.92V0Z"/>
<path d="M1021.33 408.75H1148.92V490.5H1021.33V408.75Z"/>
<path d="M1021.33 245.25H1148.92V327H1021.33V245.25Z"/>
<path d="M1021.33 81.75H1148.92V163.5H1021.33V81.75Z"/>
<path d="M638.583 408.75H766.166V490.5H638.583V408.75Z"/>
<path d="M638.583 245.25H766.166V327H638.583V245.25Z"/>
<path d="M638.583 81.75H766.166V163.5H638.583V81.75Z"/>
<path d="M638.583 327H766.166V408.75H638.583V327Z"/>
<path d="M638.583 163.5H766.166V245.25H638.583V163.5Z"/>
<path d="M638.583 0H766.166V81.75H638.583V0Z"/>
<path d="M1021.33 327H1148.92V408.75H1021.33V327Z"/>
<path d="M1021.33 163.5H1148.92V245.25H1021.33V163.5Z"/>
<path d="M1021.33 0H1148.92V81.75H1021.33V0Z"/>
<path d="M893.75 408.75H1021.33V490.5H893.75V408.75Z"/>
<path d="M893.75 245.25H1021.33V327H893.75V245.25Z"/>
<path d="M893.75 81.75H1021.33V163.5H893.75V81.75Z"/>
<path d="M511 408.75H638.583V490.5H511V408.75Z"/>
<path d="M511 245.25H638.583V327H511V245.25Z"/>
<path d="M511 81.75H638.583V163.5H511V81.75Z"/>
<path d="M511 327H638.583V408.75H511V327Z"/>
<path d="M511 163.5H638.583V245.25H511V163.5Z"/>
<path d="M511 0H638.583V81.75H511V0Z"/>
<path d="M893.75 327H1021.33V408.75H893.75V327Z"/>
<path d="M893.75 163.5H1021.33V245.25H893.75V163.5Z"/>
<path d="M893.75 0H1021.33V81.75H893.75V0Z"/>
<path d="M1914.42 408.75H2042V490.5H1914.42V408.75Z"/>
<path d="M1914.42 245.25H2042V327H1914.42V245.25Z"/>
<path d="M1914.42 81.75H2042V163.5H1914.42V81.75Z"/>
<path d="M1531.67 408.75H1659.25V490.5H1531.67V408.75Z"/>
<path d="M1531.67 245.25H1659.25V327H1531.67V245.25Z"/>
<path d="M1531.67 81.75H1659.25V163.5H1531.67V81.75Z"/>
<path d="M1531.67 327H1659.25V408.75H1531.67V327Z"/>
<path d="M1531.67 163.5H1659.25V245.25H1531.67V163.5Z"/>
<path d="M1531.67 0H1659.25V81.75H1531.67V0Z"/>
<path d="M1914.42 327H2042V408.75H1914.42V327Z"/>
<path d="M1914.42 163.5H2042V245.25H1914.42V163.5Z"/>
<path d="M1914.42 0H2042V81.75H1914.42V0Z"/>
<path d="M1786.83 408.75H1914.42V490.5H1786.83V408.75Z"/>
<path d="M1786.83 245.25H1914.42V327H1786.83V245.25Z"/>
<path d="M1786.83 81.75H1914.42V163.5H1786.83V81.75Z"/>
<path d="M1404.08 408.75H1531.67V490.5H1404.08V408.75Z"/>
<path d="M1404.08 245.25H1531.67V327H1404.08V245.25Z"/>
<path d="M1404.08 81.75H1531.67V163.5H1404.08V81.75Z"/>
<path d="M1404.08 327H1531.67V408.75H1404.08V327Z"/>
<path d="M1404.08 163.5H1531.67V245.25H1404.08V163.5Z"/>
<path d="M1404.08 0H1531.67V81.75H1404.08V0Z"/>
<path d="M1786.83 327H1914.42V408.75H1786.83V327Z"/>
<path d="M1786.83 163.5H1914.42V245.25H1786.83V163.5Z"/>
<path d="M1786.83 0H1914.42V81.75H1786.83V0Z"/>
<path d="M1659.25 408.75H1786.83V490.5H1659.25V408.75Z"/>
<path d="M1659.25 245.25H1786.83V327H1659.25V245.25Z"/>
<path d="M1659.25 81.75H1786.83V163.5H1659.25V81.75Z"/>
<path d="M1276.5 408.75H1404.08V490.5H1276.5V408.75Z"/>
<path d="M1276.5 245.25H1404.08V327H1276.5V245.25Z"/>
<path d="M1276.5 81.75H1404.08V163.5H1276.5V81.75Z"/>
<path d="M1276.5 327H1404.08V408.75H1276.5V327Z"/>
<path d="M1276.5 163.5H1404.08V245.25H1276.5V163.5Z"/>
<path d="M1276.5 0H1404.08V81.75H1276.5V0Z"/>
<path d="M1659.25 327H1786.83V408.75H1659.25V327Z"/>
<path d="M1659.25 163.5H1786.83V245.25H1659.25V163.5Z"/>
<path d="M1659.25 0H1786.83V81.75H1659.25V0Z"/>
<path d="M1914.42 899.25H2042V981H1914.42V899.25Z"/>
<path d="M1914.42 735.75H2042V817.5H1914.42V735.75Z"/>
<path d="M1914.42 572.25H2042V654H1914.42V572.25Z"/>
<path d="M1531.67 899.25H1659.25V981H1531.67V899.25Z"/>
<path d="M1531.67 735.75H1659.25V817.5H1531.67V735.75Z"/>
<path d="M1531.67 572.25H1659.25V654H1531.67V572.25Z"/>
<path d="M1531.67 817.5H1659.25V899.25H1531.67V817.5Z"/>
<path d="M1531.67 654H1659.25V735.75H1531.67V654Z"/>
<path d="M1531.67 490.5H1659.25V572.25H1531.67V490.5Z"/>
<path d="M1914.42 817.5H2042V899.25H1914.42V817.5Z"/>
<path d="M1914.42 654H2042V735.75H1914.42V654Z"/>
<path d="M1914.42 490.5H2042V572.25H1914.42V490.5Z"/>
<path d="M1786.83 899.25H1914.42V981H1786.83V899.25Z"/>
<path d="M1786.83 735.75H1914.42V817.5H1786.83V735.75Z"/>
<path d="M1786.83 572.25H1914.42V654H1786.83V572.25Z"/>
<path d="M1404.08 899.25H1531.67V981H1404.08V899.25Z"/>
<path d="M1404.08 735.75H1531.67V817.5H1404.08V735.75Z"/>
<path d="M1404.08 572.25H1531.67V654H1404.08V572.25Z"/>
<path d="M1404.08 817.5H1531.67V899.25H1404.08V817.5Z"/>
<path d="M1404.08 654H1531.67V735.75H1404.08V654Z"/>
<path d="M1404.08 490.5H1531.67V572.25H1404.08V490.5Z"/>
<path d="M1786.83 817.5H1914.42V899.25H1786.83V817.5Z"/>
<path d="M1786.83 654H1914.42V735.75H1786.83V654Z"/>
<path d="M1786.83 490.5H1914.42V572.25H1786.83V490.5Z"/>
<path d="M1659.25 899.25H1786.83V981H1659.25V899.25Z"/>
<path d="M1659.25 735.75H1786.83V817.5H1659.25V735.75Z"/>
<path d="M1659.25 572.25H1786.83V654H1659.25V572.25Z"/>
<path d="M1276.5 899.25H1404.08V981H1276.5V899.25Z"/>
<path d="M1276.5 735.75H1404.08V817.5H1276.5V735.75Z"/>
<path d="M1276.5 572.25H1404.08V654H1276.5V572.25Z"/>
<path d="M1276.5 817.5H1404.08V899.25H1276.5V817.5Z"/>
<path d="M1276.5 654H1404.08V735.75H1276.5V654Z"/>
<path d="M1276.5 490.5H1404.08V572.25H1276.5V490.5Z"/>
<path d="M1659.25 817.5H1786.83V899.25H1659.25V817.5Z"/>
<path d="M1659.25 654H1786.83V735.75H1659.25V654Z"/>
<path d="M1659.25 490.5H1786.83V572.25H1659.25V490.5Z"/>
</mask>
<path d="M383.416 409.25H511V408.25H383.416V409.25ZM510.5 408.75V490.5H511.5V408.75H510.5ZM511 490H383.416V491H511V490ZM383.916 490.5V408.75H382.916V490.5H383.916ZM383.416 245.75H511V244.75H383.416V245.75ZM510.5 245.25V327H511.5V245.25H510.5ZM511 326.5H383.416V327.5H511V326.5ZM383.916 327V245.25H382.916V327H383.916ZM383.416 82.25H511V81.25H383.416V82.25ZM510.5 81.75V163.5H511.5V81.75H510.5ZM511 163H383.416V164H511V163ZM383.916 163.5V81.75H382.916V163.5H383.916ZM0.666504 409.25H128.25V408.25H0.666504V409.25ZM127.75 408.75V490.5H128.75V408.75H127.75ZM128.25 490H0.666504V491H128.25V490ZM0.666504 245.75H128.25V244.75H0.666504V245.75ZM127.75 245.25V327H128.75V245.25H127.75ZM128.25 326.5H0.666504V327.5H128.25V326.5ZM0.666504 82.25H128.25V81.25H0.666504V82.25ZM127.75 81.75V163.5H128.75V81.75H127.75ZM128.25 163H0.666504V164H128.25V163ZM127.75 327V408.75H128.75V327H127.75ZM127.75 163.5V245.25H128.75V163.5H127.75ZM127.75 0V81.75H128.75V0H127.75ZM510.5 327V408.75H511.5V327H510.5ZM383.916 408.75V327H382.916V408.75H383.916ZM510.5 163.5V245.25H511.5V163.5H510.5ZM383.916 245.25V163.5H382.916V245.25H383.916ZM510.5 0V81.75H511.5V0H510.5ZM383.916 81.75V0H382.916V81.75H383.916ZM255.833 409.25H383.416V408.25H255.833V409.25ZM383.416 490H255.833V491H383.416V490ZM256.333 490.5V408.75H255.333V490.5H256.333ZM255.833 245.75H383.416V244.75H255.833V245.75ZM383.416 326.5H255.833V327.5H383.416V326.5ZM256.333 327V245.25H255.333V327H256.333ZM255.833 82.25H383.416V81.25H255.833V82.25ZM383.416 163H255.833V164H383.416V163ZM256.333 163.5V81.75H255.333V163.5H256.333ZM256.333 408.75V327H255.333V408.75H256.333ZM256.333 245.25V163.5H255.333V245.25H256.333ZM256.333 81.75V0H255.333V81.75H256.333ZM128.25 409.25H255.833V408.25H128.25V409.25ZM255.833 490H128.25V491H255.833V490ZM128.25 245.75H255.833V244.75H128.25V245.75ZM255.833 326.5H128.25V327.5H255.833V326.5ZM128.25 82.25H255.833V81.25H128.25V82.25ZM255.833 163H128.25V164H255.833V163ZM383.416 899.75H511V898.75H383.416V899.75ZM510.5 899.25V981H511.5V899.25H510.5ZM383.916 981V899.25H382.916V981H383.916ZM383.416 736.25H511V735.25H383.416V736.25ZM510.5 735.75V817.5H511.5V735.75H510.5ZM511 817H383.416V818H511V817ZM383.916 817.5V735.75H382.916V817.5H383.916ZM383.416 572.75H511V571.75H383.416V572.75ZM510.5 572.25V654H511.5V572.25H510.5ZM511 653.5H383.416V654.5H511V653.5ZM383.916 654V572.25H382.916V654H383.916ZM0.666504 899.75H128.25V898.75H0.666504V899.75ZM127.75 899.25V981H128.75V899.25H127.75ZM0.666504 736.25H128.25V735.25H0.666504V736.25ZM127.75 735.75V817.5H128.75V735.75H127.75ZM128.25 817H0.666504V818H128.25V817ZM0.666504 572.75H128.25V571.75H0.666504V572.75ZM127.75 572.25V654H128.75V572.25H127.75ZM128.25 653.5H0.666504V654.5H128.25V653.5ZM127.75 817.5V899.25H128.75V817.5H127.75ZM127.75 654V735.75H128.75V654H127.75ZM127.75 490.5V572.25H128.75V490.5H127.75ZM510.5 817.5V899.25H511.5V817.5H510.5ZM383.916 899.25V817.5H382.916V899.25H383.916ZM510.5 654V735.75H511.5V654H510.5ZM383.916 735.75V654H382.916V735.75H383.916ZM510.5 490.5V572.25H511.5V490.5H510.5ZM383.916 572.25V490.5H382.916V572.25H383.916ZM255.833 899.75H383.416V898.75H255.833V899.75ZM256.333 981V899.25H255.333V981H256.333ZM255.833 736.25H383.416V735.25H255.833V736.25ZM383.416 817H255.833V818H383.416V817ZM256.333 817.5V735.75H255.333V817.5H256.333ZM255.833 572.75H383.416V571.75H255.833V572.75ZM383.416 653.5H255.833V654.5H383.416V653.5ZM256.333 654V572.25H255.333V654H256.333ZM256.333 899.25V817.5H255.333V899.25H256.333ZM256.333 735.75V654H255.333V735.75H256.333ZM256.333 572.25V490.5H255.333V572.25H256.333ZM128.25 899.75H255.833V898.75H128.25V899.75ZM128.25 736.25H255.833V735.25H128.25V736.25ZM255.833 817H128.25V818H255.833V817ZM128.25 572.75H255.833V571.75H128.25V572.75ZM255.833 653.5H128.25V654.5H255.833V653.5ZM1148.92 899.75H1276.5V898.75H1148.92V899.75ZM1276 899.25V981H1277V899.25H1276ZM1149.42 981V899.25H1148.42V981H1149.42ZM1148.92 736.25H1276.5V735.25H1148.92V736.25ZM1276 735.75V817.5H1277V735.75H1276ZM1276.5 817H1148.92V818H1276.5V817ZM1149.42 817.5V735.75H1148.42V817.5H1149.42ZM1148.92 572.75H1276.5V571.75H1148.92V572.75ZM1276 572.25V654H1277V572.25H1276ZM1276.5 653.5H1148.92V654.5H1276.5V653.5ZM1149.42 654V572.25H1148.42V654H1149.42ZM766.166 899.75H893.75V898.75H766.166V899.75ZM893.25 899.25V981H894.25V899.25H893.25ZM766.666 981V899.25H765.666V981H766.666ZM766.166 736.25H893.75V735.25H766.166V736.25ZM893.25 735.75V817.5H894.25V735.75H893.25ZM893.75 817H766.166V818H893.75V817ZM766.666 817.5V735.75H765.666V817.5H766.666ZM766.166 572.75H893.75V571.75H766.166V572.75ZM893.25 572.25V654H894.25V572.25H893.25ZM893.75 653.5H766.166V654.5H893.75V653.5ZM766.666 654V572.25H765.666V654H766.666ZM893.25 817.5V899.25H894.25V817.5H893.25ZM766.666 899.25V817.5H765.666V899.25H766.666ZM893.25 654V735.75H894.25V654H893.25ZM766.666 735.75V654H765.666V735.75H766.666ZM766.166 491H893.75V490H766.166V491ZM893.25 490.5V572.25H894.25V490.5H893.25ZM766.666 572.25V490.5H765.666V572.25H766.666ZM1276 817.5V899.25H1277V817.5H1276ZM1149.42 899.25V817.5H1148.42V899.25H1149.42ZM1276 654V735.75H1277V654H1276ZM1149.42 735.75V654H1148.42V735.75H1149.42ZM1148.92 491H1276.5V490H1148.92V491ZM1276 490.5V572.25H1277V490.5H1276ZM1149.42 572.25V490.5H1148.42V572.25H1149.42ZM1021.33 899.75H1148.92V898.75H1021.33V899.75ZM1021.83 981V899.25H1020.83V981H1021.83ZM1021.33 736.25H1148.92V735.25H1021.33V736.25ZM1148.92 817H1021.33V818H1148.92V817ZM1021.83 817.5V735.75H1020.83V817.5H1021.83ZM1021.33 572.75H1148.92V571.75H1021.33V572.75ZM1148.92 653.5H1021.33V654.5H1148.92V653.5ZM1021.83 654V572.25H1020.83V654H1021.83ZM638.583 899.75H766.166V898.75H638.583V899.75ZM639.083 981V899.25H638.083V981H639.083ZM638.583 736.25H766.166V735.25H638.583V736.25ZM766.166 817H638.583V818H766.166V817ZM639.083 817.5V735.75H638.083V817.5H639.083ZM638.583 572.75H766.166V571.75H638.583V572.75ZM766.166 653.5H638.583V654.5H766.166V653.5ZM639.083 654V572.25H638.083V654H639.083ZM639.083 899.25V817.5H638.083V899.25H639.083ZM639.083 735.75V654H638.083V735.75H639.083ZM638.583 491H766.166V490H638.583V491ZM639.083 572.25V490.5H638.083V572.25H639.083ZM1021.83 899.25V817.5H1020.83V899.25H1021.83ZM1021.83 735.75V654H1020.83V735.75H1021.83ZM1021.33 491H1148.92V490H1021.33V491ZM1021.83 572.25V490.5H1020.83V572.25H1021.83ZM893.75 899.75H1021.33V898.75H893.75V899.75ZM893.75 736.25H1021.33V735.25H893.75V736.25ZM1021.33 817H893.75V818H1021.33V817ZM893.75 572.75H1021.33V571.75H893.75V572.75ZM1021.33 653.5H893.75V654.5H1021.33V653.5ZM511 899.75H638.583V898.75H511V899.75ZM511 736.25H638.583V735.25H511V736.25ZM638.583 817H511V818H638.583V817ZM511 572.75H638.583V571.75H511V572.75ZM638.583 653.5H511V654.5H638.583V653.5ZM511 491H638.583V490H511V491ZM893.75 491H1021.33V490H893.75V491ZM1148.92 409.25H1276.5V408.25H1148.92V409.25ZM1276 408.75V490.5H1277V408.75H1276ZM1149.42 490.5V408.75H1148.42V490.5H1149.42ZM1148.92 245.75H1276.5V244.75H1148.92V245.75ZM1276 245.25V327H1277V245.25H1276ZM1276.5 326.5H1148.92V327.5H1276.5V326.5ZM1149.42 327V245.25H1148.42V327H1149.42ZM1148.92 82.25H1276.5V81.25H1148.92V82.25ZM1276 81.75V163.5H1277V81.75H1276ZM1276.5 163H1148.92V164H1276.5V163ZM1149.42 163.5V81.75H1148.42V163.5H1149.42ZM766.166 409.25H893.75V408.25H766.166V409.25ZM893.25 408.75V490.5H894.25V408.75H893.25ZM766.666 490.5V408.75H765.666V490.5H766.666ZM766.166 245.75H893.75V244.75H766.166V245.75ZM893.25 245.25V327H894.25V245.25H893.25ZM893.75 326.5H766.166V327.5H893.75V326.5ZM766.666 327V245.25H765.666V327H766.666ZM766.166 82.25H893.75V81.25H766.166V82.25ZM893.25 81.75V163.5H894.25V81.75H893.25ZM893.75 163H766.166V164H893.75V163ZM766.666 163.5V81.75H765.666V163.5H766.666ZM893.25 327V408.75H894.25V327H893.25ZM766.666 408.75V327H765.666V408.75H766.666ZM893.25 163.5V245.25H894.25V163.5H893.25ZM766.666 245.25V163.5H765.666V245.25H766.666ZM893.25 0V81.75H894.25V0H893.25ZM766.666 81.75V0H765.666V81.75H766.666ZM1276 327V408.75H1277V327H1276ZM1149.42 408.75V327H1148.42V408.75H1149.42ZM1276 163.5V245.25H1277V163.5H1276ZM1149.42 245.25V163.5H1148.42V245.25H1149.42ZM1276 0V81.75H1277V0H1276ZM1149.42 81.75V0H1148.42V81.75H1149.42ZM1021.33 409.25H1148.92V408.25H1021.33V409.25ZM1021.83 490.5V408.75H1020.83V490.5H1021.83ZM1021.33 245.75H1148.92V244.75H1021.33V245.75ZM1148.92 326.5H1021.33V327.5H1148.92V326.5ZM1021.83 327V245.25H1020.83V327H1021.83ZM1021.33 82.25H1148.92V81.25H1021.33V82.25ZM1148.92 163H1021.33V164H1148.92V163ZM1021.83 163.5V81.75H1020.83V163.5H1021.83ZM638.583 409.25H766.166V408.25H638.583V409.25ZM639.083 490.5V408.75H638.083V490.5H639.083ZM638.583 245.75H766.166V244.75H638.583V245.75ZM766.166 326.5H638.583V327.5H766.166V326.5ZM639.083 327V245.25H638.083V327H639.083ZM638.583 82.25H766.166V81.25H638.583V82.25ZM766.166 163H638.583V164H766.166V163ZM639.083 163.5V81.75H638.083V163.5H639.083ZM639.083 408.75V327H638.083V408.75H639.083ZM639.083 245.25V163.5H638.083V245.25H639.083ZM639.083 81.75V0H638.083V81.75H639.083ZM1021.83 408.75V327H1020.83V408.75H1021.83ZM1021.83 245.25V163.5H1020.83V245.25H1021.83ZM1021.83 81.75V0H1020.83V81.75H1021.83ZM893.75 409.25H1021.33V408.25H893.75V409.25ZM893.75 245.75H1021.33V244.75H893.75V245.75ZM1021.33 326.5H893.75V327.5H1021.33V326.5ZM893.75 82.25H1021.33V81.25H893.75V82.25ZM1021.33 163H893.75V164H1021.33V163ZM511 409.25H638.583V408.25H511V409.25ZM511 245.75H638.583V244.75H511V245.75ZM638.583 326.5H511V327.5H638.583V326.5ZM511 82.25H638.583V81.25H511V82.25ZM638.583 163H511V164H638.583V163ZM1914.42 409.25H2042V408.25H1914.42V409.25ZM2042 490H1914.42V491H2042V490ZM1914.92 490.5V408.75H1913.92V490.5H1914.92ZM1914.42 245.75H2042V244.75H1914.42V245.75ZM2042 326.5H1914.42V327.5H2042V326.5ZM1914.92 327V245.25H1913.92V327H1914.92ZM1914.42 82.25H2042V81.25H1914.42V82.25ZM2042 163H1914.42V164H2042V163ZM1914.92 163.5V81.75H1913.92V163.5H1914.92ZM1531.67 409.25H1659.25V408.25H1531.67V409.25ZM1658.75 408.75V490.5H1659.75V408.75H1658.75ZM1659.25 490H1531.67V491H1659.25V490ZM1532.17 490.5V408.75H1531.17V490.5H1532.17ZM1531.67 245.75H1659.25V244.75H1531.67V245.75ZM1658.75 245.25V327H1659.75V245.25H1658.75ZM1659.25 326.5H1531.67V327.5H1659.25V326.5ZM1532.17 327V245.25H1531.17V327H1532.17ZM1531.67 82.25H1659.25V81.25H1531.67V82.25ZM1658.75 81.75V163.5H1659.75V81.75H1658.75ZM1659.25 163H1531.67V164H1659.25V163ZM1532.17 163.5V81.75H1531.17V163.5H1532.17ZM1658.75 327V408.75H1659.75V327H1658.75ZM1532.17 408.75V327H1531.17V408.75H1532.17ZM1658.75 163.5V245.25H1659.75V163.5H1658.75ZM1532.17 245.25V163.5H1531.17V245.25H1532.17ZM1658.75 0V81.75H1659.75V0H1658.75ZM1532.17 81.75V0H1531.17V81.75H1532.17ZM1914.92 408.75V327H1913.92V408.75H1914.92ZM1914.92 245.25V163.5H1913.92V245.25H1914.92ZM1914.92 81.75V0H1913.92V81.75H1914.92ZM1786.83 409.25H1914.42V408.25H1786.83V409.25ZM1914.42 490H1786.83V491H1914.42V490ZM1787.33 490.5V408.75H1786.33V490.5H1787.33ZM1786.83 245.75H1914.42V244.75H1786.83V245.75ZM1914.42 326.5H1786.83V327.5H1914.42V326.5ZM1787.33 327V245.25H1786.33V327H1787.33ZM1786.83 82.25H1914.42V81.25H1786.83V82.25ZM1914.42 163H1786.83V164H1914.42V163ZM1787.33 163.5V81.75H1786.33V163.5H1787.33ZM1404.08 409.25H1531.67V408.25H1404.08V409.25ZM1531.67 490H1404.08V491H1531.67V490ZM1404.58 490.5V408.75H1403.58V490.5H1404.58ZM1404.08 245.75H1531.67V244.75H1404.08V245.75ZM1531.67 326.5H1404.08V327.5H1531.67V326.5ZM1404.58 327V245.25H1403.58V327H1404.58ZM1404.08 82.25H1531.67V81.25H1404.08V82.25ZM1531.67 163H1404.08V164H1531.67V163ZM1404.58 163.5V81.75H1403.58V163.5H1404.58ZM1404.58 408.75V327H1403.58V408.75H1404.58ZM1404.58 245.25V163.5H1403.58V245.25H1404.58ZM1404.58 81.75V0H1403.58V81.75H1404.58ZM1787.33 408.75V327H1786.33V408.75H1787.33ZM1787.33 245.25V163.5H1786.33V245.25H1787.33ZM1787.33 81.75V0H1786.33V81.75H1787.33ZM1659.25 409.25H1786.83V408.25H1659.25V409.25ZM1786.83 490H1659.25V491H1786.83V490ZM1659.25 245.75H1786.83V244.75H1659.25V245.75ZM1786.83 326.5H1659.25V327.5H1786.83V326.5ZM1659.25 82.25H1786.83V81.25H1659.25V82.25ZM1786.83 163H1659.25V164H1786.83V163ZM1276.5 409.25H1404.08V408.25H1276.5V409.25ZM1404.08 490H1276.5V491H1404.08V490ZM1276.5 245.75H1404.08V244.75H1276.5V245.75ZM1404.08 326.5H1276.5V327.5H1404.08V326.5ZM1276.5 82.25H1404.08V81.25H1276.5V82.25ZM1404.08 163H1276.5V164H1404.08V163ZM1914.42 899.75H2042V898.75H1914.42V899.75ZM1914.92 981V899.25H1913.92V981H1914.92ZM1914.42 736.25H2042V735.25H1914.42V736.25ZM2042 817H1914.42V818H2042V817ZM1914.92 817.5V735.75H1913.92V817.5H1914.92ZM1914.42 572.75H2042V571.75H1914.42V572.75ZM2042 653.5H1914.42V654.5H2042V653.5ZM1914.92 654V572.25H1913.92V654H1914.92ZM1531.67 899.75H1659.25V898.75H1531.67V899.75ZM1658.75 899.25V981H1659.75V899.25H1658.75ZM1532.17 981V899.25H1531.17V981H1532.17ZM1531.67 736.25H1659.25V735.25H1531.67V736.25ZM1658.75 735.75V817.5H1659.75V735.75H1658.75ZM1659.25 817H1531.67V818H1659.25V817ZM1532.17 817.5V735.75H1531.17V817.5H1532.17ZM1531.67 572.75H1659.25V571.75H1531.67V572.75ZM1658.75 572.25V654H1659.75V572.25H1658.75ZM1659.25 653.5H1531.67V654.5H1659.25V653.5ZM1532.17 654V572.25H1531.17V654H1532.17ZM1658.75 817.5V899.25H1659.75V817.5H1658.75ZM1532.17 899.25V817.5H1531.17V899.25H1532.17ZM1658.75 654V735.75H1659.75V654H1658.75ZM1532.17 735.75V654H1531.17V735.75H1532.17ZM1658.75 490.5V572.25H1659.75V490.5H1658.75ZM1532.17 572.25V490.5H1531.17V572.25H1532.17ZM1914.92 899.25V817.5H1913.92V899.25H1914.92ZM1914.92 735.75V654H1913.92V735.75H1914.92ZM1914.92 572.25V490.5H1913.92V572.25H1914.92ZM1786.83 899.75H1914.42V898.75H1786.83V899.75ZM1787.33 981V899.25H1786.33V981H1787.33ZM1786.83 736.25H1914.42V735.25H1786.83V736.25ZM1914.42 817H1786.83V818H1914.42V817ZM1787.33 817.5V735.75H1786.33V817.5H1787.33ZM1786.83 572.75H1914.42V571.75H1786.83V572.75ZM1914.42 653.5H1786.83V654.5H1914.42V653.5ZM1787.33 654V572.25H1786.33V654H1787.33ZM1404.08 899.75H1531.67V898.75H1404.08V899.75ZM1404.58 981V899.25H1403.58V981H1404.58ZM1404.08 736.25H1531.67V735.25H1404.08V736.25ZM1531.67 817H1404.08V818H1531.67V817ZM1404.58 817.5V735.75H1403.58V817.5H1404.58ZM1404.08 572.75H1531.67V571.75H1404.08V572.75ZM1531.67 653.5H1404.08V654.5H1531.67V653.5ZM1404.58 654V572.25H1403.58V654H1404.58ZM1404.58 899.25V817.5H1403.58V899.25H1404.58ZM1404.58 735.75V654H1403.58V735.75H1404.58ZM1404.58 572.25V490.5H1403.58V572.25H1404.58ZM1787.33 899.25V817.5H1786.33V899.25H1787.33ZM1787.33 735.75V654H1786.33V735.75H1787.33ZM1787.33 572.25V490.5H1786.33V572.25H1787.33ZM1659.25 899.75H1786.83V898.75H1659.25V899.75ZM1659.25 736.25H1786.83V735.25H1659.25V736.25ZM1786.83 817H1659.25V818H1786.83V817ZM1659.25 572.75H1786.83V571.75H1659.25V572.75ZM1786.83 653.5H1659.25V654.5H1786.83V653.5ZM1276.5 899.75H1404.08V898.75H1276.5V899.75ZM1276.5 736.25H1404.08V735.25H1276.5V736.25ZM1404.08 817H1276.5V818H1404.08V817ZM1276.5 572.75H1404.08V571.75H1276.5V572.75ZM1404.08 653.5H1276.5V654.5H1404.08V653.5ZM0.666504 0V-1H-0.333496V0H0.666504ZM0.666504 981H-0.333496V982H0.666504V981ZM2042 0H2043V-1H2042V0ZM2042 981V982H2043V981H2042ZM1.6665 490.5V408.75H-0.333496V490.5H1.6665ZM1.6665 327V245.25H-0.333496V327H1.6665ZM1.6665 163.5V81.75H-0.333496V163.5H1.6665ZM1.6665 408.75V327H-0.333496V408.75H1.6665ZM1.6665 245.25V163.5H-0.333496V245.25H1.6665ZM0.666504 1H128.25V-1H0.666504V1ZM1.6665 81.75V0H-0.333496V81.75H1.6665ZM383.416 1H511V-1H383.416V1ZM255.833 1H383.416V-1H255.833V1ZM128.25 1H255.833V-1H128.25V1ZM511 980H383.416V982H511V980ZM128.25 980H0.666504V982H128.25V980ZM1.6665 981V899.25H-0.333496V981H1.6665ZM1.6665 817.5V735.75H-0.333496V817.5H1.6665ZM1.6665 654V572.25H-0.333496V654H1.6665ZM1.6665 899.25V817.5H-0.333496V899.25H1.6665ZM1.6665 735.75V654H-0.333496V735.75H1.6665ZM1.6665 572.25V490.5H-0.333496V572.25H1.6665ZM383.416 980H255.833V982H383.416V980ZM255.833 980H128.25V982H255.833V980ZM1276.5 980H1148.92V982H1276.5V980ZM893.75 980H766.166V982H893.75V980ZM1148.92 980H1021.33V982H1148.92V980ZM766.166 980H638.583V982H766.166V980ZM1021.33 980H893.75V982H1021.33V980ZM638.583 980H511V982H638.583V980ZM766.166 1H893.75V-1H766.166V1ZM1148.92 1H1276.5V-1H1148.92V1ZM638.583 1H766.166V-1H638.583V1ZM1021.33 1H1148.92V-1H1021.33V1ZM511 1H638.583V-1H511V1ZM893.75 1H1021.33V-1H893.75V1ZM2041 408.75V490.5H2043V408.75H2041ZM2041 245.25V327H2043V245.25H2041ZM2041 81.75V163.5H2043V81.75H2041ZM1531.67 1H1659.25V-1H1531.67V1ZM2041 327V408.75H2043V327H2041ZM2041 163.5V245.25H2043V163.5H2041ZM1914.42 1H2042V-1H1914.42V1ZM2041 0V81.75H2043V0H2041ZM1404.08 1H1531.67V-1H1404.08V1ZM1786.83 1H1914.42V-1H1786.83V1ZM1276.5 1H1404.08V-1H1276.5V1ZM1659.25 1H1786.83V-1H1659.25V1ZM2041 899.25V981H2043V899.25H2041ZM2042 980H1914.42V982H2042V980ZM2041 735.75V817.5H2043V735.75H2041ZM2041 572.25V654H2043V572.25H2041ZM1659.25 980H1531.67V982H1659.25V980ZM2041 817.5V899.25H2043V817.5H2041ZM2041 654V735.75H2043V654H2041ZM2041 490.5V572.25H2043V490.5H2041ZM1914.42 980H1786.83V982H1914.42V980ZM1531.67 980H1404.08V982H1531.67V980ZM1786.83 980H1659.25V982H1786.83V980ZM1404.08 980H1276.5V982H1404.08V980Z" fill="url(#paint0_linear_84_5)" fill-opacity="0.89" mask="url(#path-1-inside-1_84_5)"/>
<defs>
<linearGradient id="paint0_linear_84_5" x1="1277" y1="-5.72166e-08" x2="1276.5" y2="981" gradientUnits="userSpaceOnUse">
<stop stop-color="#8FB3FF" stop-opacity="0"/>
<stop offset="0.546927" stop-color="white" stop-opacity="0.27"/>
<stop offset="1" stop-color="#8FB3FF" stop-opacity="0"/>
</linearGradient>
</defs>
</svg>
